<?xml version="1.0" encoding="UTF-8"?>
<svg version="1.1" xmlns="http://www.w3.org/2000/svg" width="200" height="200">
<path d="M0 0 C3.83736322 0.95934081 4.59660228 1.23609263 7 4 C7.86625 3.71125 8.7325 3.4225 9.625 3.125 C10.73875 2.75375 11.8525 2.3825 13 2 C13.91136719 1.65453125 14.82273437 1.3090625 15.76171875 0.953125 C25.41500417 -1.88813151 36.17812795 -0.76058339 45 4 C52.48216516 8.71985418 57.04556242 14.14456319 61 22 C61.34691895 22.61560791 61.69383789 23.23121582 62.05126953 23.86547852 C63.73413525 27.65170986 63.36901479 31.60259141 63.375 35.6875 C63.39949219 36.54794922 63.42398438 37.40839844 63.44921875 38.29492188 C63.49318607 48.01902778 59.51819244 55.88792781 53 63 C43.36530543 72.07115583 34.75465865 73.43612018 21.98828125 73.203125 C18.56136916 73.02859079 15.37006479 72.59783696 12 72 C10.68 72 9.36 72 8 72 C8 70.68 8 69.36 8 68 C7.2265625 67.62875 7.2265625 67.62875 6.4375 67.25 C5.633125 66.8375 4.82875 66.425 4 66 C3.40960938 65.70867187 2.81921875 65.41734375 2.2109375 65.1171875 C0.41711078 64.17967312 -1.29637552 63.09289118 -3 62 C-3.5859375 60.10546875 -3.5859375 60.10546875 -4 58 C-4.92474901 56.0584274 -5.93984601 54.18317372 -6.96484375 52.29296875 C-9.62583161 46.39862959 -10.3636127 40.86549859 -10.375 34.5 C-10.39949219 33.77941406 -10.42398438 33.05882812 -10.44921875 32.31640625 C-10.47074306 28.34875804 -10.09650032 25.75755313 -7.9609375 22.37109375 C-5.73330891 18.54152508 -5.66839502 16.87607029 -6.25 12.5625 C-6.37890625 11.51191406 -6.5078125 10.46132812 -6.640625 9.37890625 C-6.75921875 8.59386719 -6.8778125 7.80882813 -7 7 C-5.02 7.66 -3.04 8.32 -1 9 C-0.67 6.03 -0.34 3.06 0 0 Z " fill="#E8BF3F" transform="translate(75,63)"/>
<path d="M0 0 C3.83736322 0.95934081 4.59660228 1.23609263 7 4 C7.86625 3.71125 8.7325 3.4225 9.625 3.125 C10.73875 2.75375 11.8525 2.3825 13 2 C13.91136719 1.65453125 14.82273437 1.3090625 15.76171875 0.953125 C24.39830277 -1.58888525 34.14687818 -0.86633007 42.421875 2.58984375 C48.10499876 5.69834023 53.39022677 9.58534016 57 15 C56.67 15.99 56.34 16.98 56 18 C55.01 17.01 55.01 17.01 54 16 C49.13798584 13.8654572 44.24851279 13.32019263 39 14 C38.01 14.66 37.02 15.32 36 16 C35.01 16 34.02 16 33 16 C32.71125 16.61875 32.4225 17.2375 32.125 17.875 C31 20 31 20 29 22 C27.76242123 24.96260526 27.76242123 24.96260526 27 28 C27.495 28.99 27.495 28.99 28 30 C21.25 29.25 21.25 29.25 19 27 C12.7480628 27.24045912 8.6473345 29.3526655 4.25 33.75 C3.8375 34.1625 3.425 34.575 3 35 C2.34 35 1.68 35 1 35 C1.33 35.99 1.66 36.98 2 38 C1.22265625 40.48046875 1.22265625 40.48046875 0.0625 43.1875 C-0.31777344 44.08855469 -0.69804688 44.98960938 -1.08984375 45.91796875 C-1.39019531 46.60503906 -1.69054687 47.29210937 -2 48 C-1.67 48.33 -1.34 48.66 -1 49 C-0.92794489 50.68608966 -0.91613932 52.37500659 -0.9375 54.0625 C-0.94652344 54.98160156 -0.95554687 55.90070313 -0.96484375 56.84765625 C-0.97644531 57.55792969 -0.98804687 58.26820312 -1 59 C-4 58 -4 58 -5.09765625 56.3984375 C-5.41605469 55.73070312 -5.73445313 55.06296875 -6.0625 54.375 C-6.38347656 53.72273438 -6.70445313 53.07046875 -7.03515625 52.3984375 C-9.46011193 46.37041002 -10.36350738 40.92437316 -10.375 34.5 C-10.39949219 33.77941406 -10.42398438 33.05882812 -10.44921875 32.31640625 C-10.47074306 28.34875804 -10.09650032 25.75755313 -7.9609375 22.37109375 C-5.73330891 18.54152508 -5.66839502 16.87607029 -6.25 12.5625 C-6.37890625 11.51191406 -6.5078125 10.46132812 -6.640625 9.37890625 C-6.75921875 8.59386719 -6.8778125 7.80882813 -7 7 C-5.02 7.66 -3.04 8.32 -1 9 C-0.67 6.03 -0.34 3.06 0 0 Z " fill="#9BCE20" transform="translate(75,63)"/>
<path d="M0 0 C3.6169128 2.80569093 6.62211512 5.23395393 9.171875 9.05859375 C8.841875 10.04859375 8.511875 11.03859375 8.171875 12.05859375 C7.511875 11.39859375 6.851875 10.73859375 6.171875 10.05859375 C1.30986084 7.92405095 -3.57961221 7.37878638 -8.828125 8.05859375 C-9.818125 8.71859375 -10.808125 9.37859375 -11.828125 10.05859375 C-12.818125 10.05859375 -13.808125 10.05859375 -14.828125 10.05859375 C-15.116875 10.67734375 -15.405625 11.29609375 -15.703125 11.93359375 C-16.828125 14.05859375 -16.828125 14.05859375 -18.828125 16.05859375 C-19.53523178 17.70850957 -20.20756489 19.37421631 -20.828125 21.05859375 C-21.158125 20.06859375 -21.488125 19.07859375 -21.828125 18.05859375 C-23.808125 19.04859375 -23.808125 19.04859375 -25.828125 20.05859375 C-25.35535648 15.8036771 -22.90265023 13.8331653 -19.828125 11.05859375 C-19.168125 10.72859375 -18.508125 10.39859375 -17.828125 10.05859375 C-18.86219173 8.79910326 -18.86219173 8.79910326 -21.11328125 8.9609375 C-22.02980469 8.97253906 -22.94632813 8.98414062 -23.890625 8.99609375 C-24.80972656 9.00511719 -25.72882813 9.01414062 -26.67578125 9.0234375 C-27.38605469 9.03503906 -28.09632812 9.04664062 -28.828125 9.05859375 C-28.28088817 5.6839666 -27.773225 3.97624375 -25.828125 1.05859375 C-29.7773818 1.60965284 -33.17732674 2.44794746 -36.828125 4.05859375 C-37.818125 2.40859375 -38.808125 0.75859375 -39.828125 -0.94140625 C-27.35239432 -8.37886108 -12.22346347 -8.39096871 0 0 Z " fill="#478157" transform="translate(122.828125,68.94140625)"/>
<path d="M0 0 C0 3.74161103 -0.51338171 7.28953557 -1 11 C-0.21625 11.28875 0.5675 11.5775 1.375 11.875 C4 13 4 13 6 15 C5.01 17.475 5.01 17.475 4 20 C2.02 19.67 0.04 19.34 -2 19 C-2 20.65 -2 22.3 -2 24 C0.31 24.66 2.62 25.32 5 26 C4.67 27.093125 4.34 28.18625 4 29.3125 C2.86913351 32.84578884 2.86913351 32.84578884 3 36 C3.98189187 37.67739862 4.98133771 39.34467377 6 41 C6 41.66 6 42.32 6 43 C3.69 43.66 1.38 44.32 -1 45 C-1.0825 44.21625 -1.165 43.4325 -1.25 42.625 C-1.70806954 39.9378646 -1.70806954 39.9378646 -3.625 38.9375 C-4.40875 38.628125 -5.1925 38.31875 -6 38 C-7.25809995 37.30615518 -8.507695 36.596744 -9.75 35.875 C-10.8225 35.25625 -11.895 34.6375 -13 34 C-12.67 33.01 -12.34 32.02 -12 31 C-11.93152181 29.33461039 -11.91517883 27.6666474 -11.9375 26 C-11.95103516 24.700625 -11.95103516 24.700625 -11.96484375 23.375 C-11.97644531 22.59125 -11.98804687 21.8075 -12 21 C-12 18.00004872 -11.49385102 16.23040541 -10.5 13.4375 C-9.34460344 10.28896683 -9.34460344 10.28896683 -9 7 C-7.03125 5.2734375 -7.03125 5.2734375 -4.5 3.375 C-3.24703125 2.42753906 -3.24703125 2.42753906 -1.96875 1.4609375 C-0.99421875 0.73777344 -0.99421875 0.73777344 0 0 Z " fill="#DD9E2C" transform="translate(85,91)"/>
<path d="M0 0 C4.93859276 2.21008847 8.91681461 4.85330669 11 10 C12.46757639 15.66065179 11.83103607 18.90413507 9 24 C6.30318309 27.3527994 4.89003879 28.7816886 0.6875 29.8125 C-0.199375 29.874375 -1.08625 29.93625 -2 30 C-2 27.69 -2 25.38 -2 23 C0.07553648 22.4465236 1.84365964 22 4 22 C3.67 21.01 3.34 20.02 3 19 C2.5931128 14.75115862 2.30810886 11.18198069 4.5 7.4375 C4.995 6.963125 5.49 6.48875 6 6 C4.4375 7.5625 4.4375 7.5625 2 9 C-0.34360915 8.74889902 -2.67968195 8.41434251 -5 8 C-6.34332728 8.29044914 -7.68225804 8.60955794 -9 9 C-9.66 8.67 -10.32 8.34 -11 8 C-10.7215625 8.928125 -10.7215625 8.928125 -10.4375 9.875 C-10 12 -10 12 -11 14 C-13.31 13.67 -15.62 13.34 -18 13 C-17.58318127 8.1371148 -15.63015855 6.13513693 -12 3 C-7.94988048 -0.09088069 -5.06327284 -0.68654547 0 0 Z " fill="#FBEE85" transform="translate(123,79)"/>
<path d="M0 0 C4.75 0.75 4.75 0.75 7 3 C7.763125 3.12375 8.52625 3.2475 9.3125 3.375 C12.92506451 4.21513128 14.54537844 5.19471822 17 8 C17.91001655 11.82934965 17.80218154 15.29668942 16.11328125 18.8828125 C13.94213384 21.86904183 12.05945558 22.98162282 8.5625 24.0625 C4.56780053 23.99241755 2.38119982 23.06170721 -1 21 C-1.680625 22.4540625 -1.680625 22.4540625 -2.375 23.9375 C-4 27 -4 27 -6 28 C-6.66 27.67 -7.32 27.34 -8 27 C-6.08523163 20.10372044 -3.69453825 13.50875146 -0.98828125 6.8828125 C0.21619437 3.87727995 0.21619437 3.87727995 0 0 Z M3.125 9.125 C1.45336375 11.91106042 1.53623376 13.81988862 2 17 C3.55797882 19.14782671 3.55797882 19.14782671 6 20 C9.82108796 19.09021715 10.78194445 18.32708333 13 15 C12.81767408 11.17251095 12.81767408 11.17251095 11 8 C6.87204872 7.62418498 6.87204872 7.62418498 3.125 9.125 Z " fill="#938648" transform="translate(123,22)"/>
<path d="M0 0 C4.27563279 0.47507031 6.16560497 2.95302534 9 6 C10.11375 6.9590625 10.11375 6.9590625 11.25 7.9375 C13.56149102 10.66175728 13.92745123 12.44511032 14 16 C12.24449363 20.09618153 9.78719409 22.67603999 6 25 C1.72937462 25.61008934 -0.24802064 25.46398727 -3.9375 23.1875 C-6 21 -6 21 -6 18 C-6.928125 18.825 -7.85625 19.65 -8.8125 20.5 C-11.625 23 -11.625 23 -15 23 C-15.33 22.01 -15.66 21.02 -16 20 C-15.5153125 19.53625977 -15.030625 19.07251953 -14.53125 18.59472656 C-12.34376654 16.49032541 -10.1718691 14.37050733 -8 12.25 C-7.236875 11.52039062 -6.47375 10.79078125 -5.6875 10.0390625 C-4.965625 9.33007812 -4.24375 8.62109375 -3.5 7.890625 C-2.8296875 7.24125977 -2.159375 6.59189453 -1.46875 5.92285156 C0.40467705 3.87347753 0.40467705 3.87347753 0 0 Z M-0.75 11.1875 C-3.27981132 13.74947126 -3.27981132 13.74947126 -3 16.6875 C-2.1108717 19.31863969 -2.1108717 19.31863969 1 21 C3.78758532 20.7909311 5.50703708 20.33997443 7.8125 18.75 C9.46958135 16.30798538 9.50545979 14.88834165 9 12 C7.26961928 10.09798258 7.26961928 10.09798258 5 9 C1.80564666 8.68873822 1.80564666 8.68873822 -0.75 11.1875 Z " fill="#928547" transform="translate(150,36)"/>
<path d="M0 0 C0.99 -0.33 1.98 -0.66 3 -1 C4 0 4 0 4.09765625 3.37890625 C4.09098369 4.77347077 4.07902532 6.16801743 4.0625 7.5625 C4.05798828 8.27341797 4.05347656 8.98433594 4.04882812 9.71679688 C4.03700864 11.47790013 4.01907263 13.23896036 4 15 C5.32 15.33 6.64 15.66 8 16 C7.67 16.99 7.34 17.98 7 19 C1.25 20.125 1.25 20.125 -1 19 C-1.66 19.33 -2.32 19.66 -3 20 C-6.3125 20.375 -6.3125 20.375 -10 20 C-13.57080513 17.05020446 -15.78414179 14.89955225 -16.3125 10.25 C-15.91485635 6.11450604 -14.65876389 4.16177328 -12 1 C-7.83996218 -1.58596946 -4.68587411 -0.78097902 0 0 Z M-11 6 C-11.3176246 7.91006306 -11.3176246 7.91006306 -11.25 10 C-11.25515625 10.70125 -11.2603125 11.4025 -11.265625 12.125 C-11.15705515 14.2435669 -11.15705515 14.2435669 -9 16 C-5.47105052 15.91256309 -5.47105052 15.91256309 -2 15 C0.33296251 12.17282787 0.33296251 12.17282787 -0.25 8.9375 C-0.7593244 5.900541 -0.7593244 5.900541 -3 4 C-7.50480277 3.4895042 -7.50480277 3.4895042 -11 6 Z " fill="#918345" transform="translate(107,20)"/>
<path d="M0 0 C5.24099655 0.41105855 8.24039194 1.24039194 12 5 C12 5.66 12 6.32 12 7 C11.34 7 10.68 7 10 7 C10.33 7.99 10.66 8.98 11 10 C10.22265625 12.48046875 10.22265625 12.48046875 9.0625 15.1875 C8.68222656 16.08855469 8.30195312 16.98960938 7.91015625 17.91796875 C7.60980469 18.60503906 7.30945313 19.29210937 7 20 C7.33 20.33 7.66 20.66 8 21 C8.07205511 22.68608966 8.08386068 24.37500659 8.0625 26.0625 C8.05347656 26.98160156 8.04445313 27.90070313 8.03515625 28.84765625 C8.02355469 29.55792969 8.01195313 30.26820312 8 31 C5 30 5 30 3.90234375 28.3984375 C-0.33205029 19.51821033 -1.59306934 11.86150186 -1 2 C-0.67 1.34 -0.34 0.68 0 0 Z " fill="#498259" transform="translate(66,91)"/>
<path d="M0 0 C5.57894737 3.15789474 5.57894737 3.15789474 7 6 C7.06996014 7.70702735 7.08440154 9.41668003 7.0625 11.125 C7.05347656 12.03507812 7.04445313 12.94515625 7.03515625 13.8828125 C7.02355469 14.58148438 7.01195313 15.28015625 7 16 C8.65 16 10.3 16 12 16 C12 17.32 12 18.64 12 20 C3.52902072 19.53007706 -4.69187796 18.74640116 -13 17 C-13.28971178 11.39890552 -13.15976306 7.85249327 -10 3 C-6.87405503 -0.23373618 -4.41424779 -0.61799469 0 0 Z M-7.9375 7.3125 C-9.18382944 9.98332919 -9.18382944 9.98332919 -9 13 C-3.06 13.99 -3.06 13.99 3 15 C3.04125 13.72125 3.0825 12.4425 3.125 11.125 C3.15980469 10.04605469 3.15980469 10.04605469 3.1953125 8.9453125 C3.18331689 6.76136355 3.18331689 6.76136355 1 5 C-4.15187172 4.2232696 -4.15187172 4.2232696 -7.9375 7.3125 Z " fill="#928446" transform="translate(30,76)"/>
<path d="M0 0 C2.95606 3.29389542 3.35780335 6.08131956 3.1875 10.4375 C2.10179716 13.87555898 1.29362788 14.36674808 -1.8125 16.4375 C-3.1325 16.4375 -4.4525 16.4375 -5.8125 16.4375 C-7.4625 12.4775 -9.1125 8.5175 -10.8125 4.4375 C-11.4725 5.0975 -12.1325 5.7575 -12.8125 6.4375 C-12.48923447 10.03429066 -12.48923447 10.03429066 -11.8125 13.4375 C-10.8225 13.7675 -9.8325 14.0975 -8.8125 14.4375 C-9.1425 15.4275 -9.4725 16.4175 -9.8125 17.4375 C-11.5625 17.3125 -11.5625 17.3125 -13.8125 16.4375 C-16.33588337 13.42345876 -17.6763757 11.27126136 -18.3125 7.375 C-17.67812238 3.64803146 -16.50995749 2.06205323 -13.8125 -0.5625 C-8.83940338 -3.4416612 -4.9078871 -2.72660394 0 0 Z M-6.8125 2.4375 C-5.8225 5.4075 -4.8325 8.3775 -3.8125 11.4375 C-2.8225 10.7775 -1.8325 10.1175 -0.8125 9.4375 C-1.38702746 5.50674356 -1.38702746 5.50674356 -3.8125 2.4375 C-4.8025 2.4375 -5.7925 2.4375 -6.8125 2.4375 Z " fill="#94874A" transform="translate(177.8125,79.5625)"/>
<path d="M0 0 C0.99 0 1.98 0 3 0 C6.69831714 6.32676397 9.27017287 11.5860562 8 19 C6.15165299 24.54504102 3.83542796 29.51140032 -1.5 32.3125 C-4 33 -4 33 -8 33 C-8 32.01 -8 31.02 -8 30 C-7.45730469 29.76925781 -6.91460937 29.53851563 -6.35546875 29.30078125 C-1.84912199 27.24653669 1.09559392 25.81702713 3 21 C4.28858014 16.12180375 4.16163229 12.45469862 2.20703125 7.8671875 C-0.06308345 4.35548903 -3.17440188 2.53448205 -7 1 C-11.91966634 0.22321058 -15.28111105 1.0612168 -19.421875 3.64453125 C-22.16124609 5.99740691 -23.44628214 8.76826686 -25 12 C-25.66 11.67 -26.32 11.34 -27 11 C-27.5479217 7.27413242 -27.03767501 6.05540443 -24.875 2.875 C-17.55131768 -5.06239872 -8.99607796 -4.31811742 0 0 Z " fill="#D8A02F" transform="translate(130,79)"/>
<path d="M0 0 C3.03891152 1.92082143 5.46548147 4.46548147 8 7 C8.99 7.33 9.98 7.66 11 8 C10.125 12.75 10.125 12.75 9 15 C7.15625 14.75 7.15625 14.75 5 14 C3.53916206 12.02956743 2.48882871 9.97886513 1.34375 7.8125 C0.13082035 5.84499042 0.13082035 5.84499042 -2.04296875 5.18359375 C-4.06600711 4.80161841 -4.06600711 4.80161841 -5.8125 6.0625 C-7.27727501 8.04825597 -7.27727501 8.04825597 -6.875 11 C-5.98386062 14.05533502 -5.59622984 15.23827261 -3 17 C-0.39388923 17.72197162 -0.39388923 17.72197162 2 18 C1.01 20.475 1.01 20.475 0 23 C-4 23 -4 23 -5.96484375 21.06640625 C-7.2776847 19.40000814 -8.59018593 17.73334233 -9.90234375 16.06640625 C-12.29213839 13.71221376 -13.71204961 13.3144996 -17 13 C-16.75 11.125 -16.75 11.125 -16 9 C-15.401875 8.71125 -14.80375 8.4225 -14.1875 8.125 C-11.03924496 6.50589741 -9.87457205 3.93682954 -8 1 C-5.09704195 -0.45147903 -3.22738221 -0.37239025 0 0 Z " fill="#918345" transform="translate(55,38)"/>
<path d="M0 0 C2.875 2 2.875 2 5 4 C4.68276924 7.05081496 4.11098219 7.90666113 1.71484375 9.921875 C0.79832031 10.52515625 -0.11820313 11.1284375 -1.0625 11.75 C-2.44115234 12.67039062 -2.44115234 12.67039062 -3.84765625 13.609375 C-4.55792969 14.06828125 -5.26820312 14.5271875 -6 15 C-2.94336088 15.93621282 -2.94336088 15.93621282 0.125 15.25 C2.29166667 13.97916667 2.29166667 13.97916667 4 11 C4.99 11 5.98 11 7 11 C6.67054081 13.9651327 6.15096845 15.78260543 4.4375 18.25 C1.0591141 20.67550782 -1.85017982 21.43808083 -6 21 C-9.70247034 18.98047072 -11.40841181 17.84123515 -12.6953125 13.8359375 C-13.2875696 10.06817426 -13.25386908 7.62799193 -11.8125 4.0625 C-8.34222898 0.11357091 -5.21749319 -0.63887672 0 0 Z M-7.3125 5.75 C-9.3 7.93125 -9.3 7.93125 -9 11 C-5.06326356 9.68775452 -2.77280706 8.08089673 0 5 C-3.36073514 3.87975495 -4.40344448 3.54855258 -7.3125 5.75 Z " fill="#938648" transform="translate(79,24)"/>
<path d="M0 0 C2.07976515 1.83674911 3.38378246 3.6911178 5 6 C5 6.66 5 7.32 5 8 C5.99 8.33 6.98 8.66 8 9 C7.1875 10.9375 7.1875 10.9375 6 13 C5.01 13.33 4.02 13.66 3 14 C2.49596232 12.70990357 1.99690074 11.41786211 1.5 10.125 C1.2215625 9.40570313 0.943125 8.68640625 0.65625 7.9453125 C0 6 0 6 0 4 C-1.65 4.33 -3.3 4.66 -5 5 C-4.7452486 6.31571603 -4.47065859 7.62760376 -4.1875 8.9375 C-4.03667969 9.66839844 -3.88585937 10.39929688 -3.73046875 11.15234375 C-3.36888672 12.06693359 -3.36888672 12.06693359 -3 13 C-2.01 13.33 -1.02 13.66 0 14 C-0.99 15.32 -1.98 16.64 -3 18 C-6 17 -6 17 -6.94921875 15.15234375 C-7.31466797 14.05599609 -7.31466797 14.05599609 -7.6875 12.9375 C-7.93886719 12.20402344 -8.19023437 11.47054687 -8.44921875 10.71484375 C-8.63097656 10.14894531 -8.81273437 9.58304688 -9 9 C-10.65 9 -12.3 9 -14 9 C-13.50233954 12.68268739 -12.93714041 14.65028767 -10 17 C-9.34 17.33 -8.68 17.66 -8 18 C-8.66 19.32 -9.32 20.64 -10 22 C-12.67007782 21.63641494 -13.72519889 21.35223126 -15.4140625 19.1875 C-16.01347656 18.1046875 -16.01347656 18.1046875 -16.625 17 C-18.23227894 13.90833391 -18.23227894 13.90833391 -21 12 C-21 11.01 -21 10.02 -21 9 C-20.030625 8.525625 -19.06125 8.05125 -18.0625 7.5625 C-15.19522563 6.29806053 -15.19522563 6.29806053 -14 5 C-12.33382885 4.95936168 -10.66611905 4.957279 -9 5 C-8.71125 4.360625 -8.4225 3.72125 -8.125 3.0625 C-6.21820912 -0.43328329 -3.74678091 -0.60994108 0 0 Z " fill="#918344" transform="translate(146,152)"/>
<path d="M0 0 C0.66 0 1.32 0 2 0 C1.67 0.804375 1.34 1.60875 1 2.4375 C-0.21112173 6.75212116 -0.15225328 10.55927934 0 15 C0 15.99 0 16.98 0 18 C-0.556875 17.835 -1.11375 17.67 -1.6875 17.5 C-4.18691249 16.95958649 -6.45045662 16.92917935 -9 17 C-9 16.01 -9 15.02 -9 14 C-9.99 14 -10.98 14 -12 14 C-12 13.01 -12 12.02 -12 11 C-12.66 11 -13.32 11 -14 11 C-13.67 12.32 -13.34 13.64 -13 15 C-17.67692308 13.52307692 -17.67692308 13.52307692 -19.3125 10.875 C-19.539375 10.25625 -19.76625 9.6375 -20 9 C-18.68 8.67 -17.36 8.34 -16 8 C-15.06576355 4.98968256 -14.95550089 4.13349732 -16 1 C-15.278125 1.185625 -14.55625 1.37125 -13.8125 1.5625 C-10.84289183 2.02443905 -8.91075256 1.59707745 -6 1 C-5.278125 1.185625 -4.55625 1.37125 -3.8125 1.5625 C-3.214375 1.706875 -2.61625 1.85125 -2 2 C-1.34 1.34 -0.68 0.68 0 0 Z " fill="#C98D20" transform="translate(127,85)"/>
<path d="M0 0 C0.33 0 0.66 0 1 0 C1.78700569 11.69577906 -1.49184761 19.15039105 -9 28 C-10.55859375 29.7265625 -10.55859375 29.7265625 -12 31 C-12.66 31 -13.32 31 -14 31 C-13.88512252 29.41590006 -13.75765492 27.83271037 -13.625 26.25 C-13.55539063 25.36828125 -13.48578125 24.4865625 -13.4140625 23.578125 C-13.00149945 21.00933618 -12.28839043 19.24158985 -11 17 C-11.99 17 -12.98 17 -14 17 C-14 16.01 -14 15.02 -14 14 C-10.91190305 12.23537317 -9.76687864 12 -6 12 C-5.566875 11.071875 -5.566875 11.071875 -5.125 10.125 C-4 8 -4 8 -2 6 C-1.28591666 4.01643517 -0.61382258 2.01684563 0 0 Z " fill="#A1D029" transform="translate(137,98)"/>
<path d="M0 0 C2.75806231 2.39032067 2.98155872 3.85246979 3.4375 7.5 C3 11 3 11 1.375 13.4375 C-1.602598 15.39644605 -3.50355037 15.31785906 -7 15 C-6.67 16.98 -6.34 18.96 -6 21 C-7.32 21 -8.64 21 -10 21 C-10.33848652 19.10507994 -10.67056911 17.20901534 -11 15.3125 C-11.185625 14.25675781 -11.37125 13.20101562 -11.5625 12.11328125 C-11.95068074 9.35095938 -12.08259976 6.78257957 -12 4 C-12.99 3.67 -13.98 3.34 -15 3 C-13.18192163 0.67689986 -12.0834125 0.02224333 -9.1875 -0.75 C-5.80994174 -1.01490653 -3.25843559 -0.94132584 0 0 Z M-8 4 C-8.25005386 6.95817107 -8.25005386 6.95817107 -8 10 C-7.34 10.66 -6.68 11.32 -6 12 C-3.39719432 11.67958603 -3.39719432 11.67958603 -1 11 C-0.3121764 8.64632287 -0.3121764 8.64632287 0 6 C-0.66 5.01 -1.32 4.02 -2 3 C-5.28912144 2.5085887 -5.28912144 2.5085887 -8 4 Z " fill="#95894C" transform="translate(118,164)"/>
<path d="M0 0 C1.60442365 9.95789026 1.60442365 9.95789026 -0.8125 14.125 C-4.17674596 17.0086394 -6.5083852 17.3334465 -10.9609375 17.29296875 C-14.13134567 16.83745033 -15.8192402 15.24684343 -18 13 C-19.62651522 9.74696956 -19.11453156 6.60774398 -19 3 C-17.01011246 1.01011246 -13.35643188 1.28019824 -10.625 0.9375 C-9.93921875 0.84662109 -9.2534375 0.75574219 -8.546875 0.66210938 C-5.67413443 0.29044158 -2.8998232 0 0 0 Z M-11.75 5 C-12.94882812 5.2784375 -12.94882812 5.2784375 -14.171875 5.5625 C-14.77515625 5.706875 -15.3784375 5.85125 -16 6 C-15.67694236 8.98828314 -15.34810879 10.61321245 -13.3125 12.875 C-10.15920352 14.40903612 -8.3226672 13.93901464 -5 13 C-2.58878141 11.04366025 -2.58878141 11.04366025 -2.875 7.375 C-2.91625 6.26125 -2.9575 5.1475 -3 4 C-6.27217135 4 -8.62554456 4.26483401 -11.75 5 Z " fill="#908142" transform="translate(41,102)"/>
<path d="M0 0 C3 1 3 1 4.25 2.8125 C5.14984779 5.43705604 5.01762809 6.44264278 4 9 C2.26586914 10.18847656 2.26586914 10.18847656 0.03515625 11.140625 C-0.76470703 11.48867187 -1.56457031 11.83671875 -2.38867188 12.1953125 C-3.22978516 12.54335937 -4.07089844 12.89140625 -4.9375 13.25 C-5.77474609 13.61351563 -6.61199219 13.97703125 -7.47460938 14.3515625 C-13.66259398 17 -13.66259398 17 -16 17 C-16.33 18.65 -16.66 20.3 -17 22 C-18.9375 21.25 -18.9375 21.25 -21 20 C-21.75 17.875 -21.75 17.875 -22 16 C-19.09763905 14.16031451 -16.16167218 12.57189021 -13.046875 11.1328125 C-12.345625 10.80410156 -11.644375 10.47539063 -10.921875 10.13671875 C-9.46405697 9.45762726 -8.00033393 8.79108184 -6.53125 8.13671875 C-2.21295999 6.2241726 -2.21295999 6.2241726 -0.015625 2.2421875 C-0.01046875 1.50226562 -0.0053125 0.76234375 0 0 Z " fill="#958A4D" transform="translate(177,54)"/>
<path d="M0 0 C0.66 0 1.32 0 2 0 C2.66 0.99 3.32 1.98 4 3 C6.29469168 3.47101525 6.29469168 3.47101525 8.875 3.5 C12.88559139 3.64366298 15.04379272 4.19504054 18 7 C18 7.66 18 8.32 18 9 C16.04109119 10.39300182 14.0360882 11.72245446 12 13 C11.01 13.66 10.02 14.32 9 15 C8.34 14.38125 7.68 13.7625 7 13.125 C3.29588966 10.50125518 0.42075485 9.89913658 -4 9 C-2.80100302 5.9168649 -1.52299523 2.93720508 0 0 Z " fill="#84B01F" transform="translate(69,82)"/>
<path d="M0 0 C3.625 0.375 3.625 0.375 6.0625 2.0625 C7.91468623 4.80373562 8.22216883 6.13322636 7.625 9.375 C6.635 10.035 5.645 10.695 4.625 11.375 C2.36328125 10.9140625 2.36328125 10.9140625 -0.0625 10 C-0.87074219 9.70351562 -1.67898437 9.40703125 -2.51171875 9.1015625 C-3.12660156 8.86179688 -3.74148437 8.62203125 -4.375 8.375 C-2.66607501 11.68960705 -2.66607501 11.68960705 0.75 12.0625 C1.69875 12.165625 2.6475 12.26875 3.625 12.375 C3.625 13.365 3.625 14.355 3.625 15.375 C0.50302451 16.3561923 -0.97643265 16.53257314 -4.0625 15.3125 C-7.02296379 12.83211142 -7.76669865 11.17688346 -8.375 7.375 C-6.41964939 3.07322866 -4.83419378 0.53713264 0 0 Z M-1.375 3.375 C-2.035 4.035 -2.695 4.695 -3.375 5.375 C-1.065 6.035 1.245 6.695 3.625 7.375 C3.625 6.385 3.625 5.395 3.625 4.375 C1.22780568 3.69541397 1.22780568 3.69541397 -1.375 3.375 Z " fill="#988D51" transform="translate(62.375,153.625)"/>
<path d="M0 0 C3.97818315 0.26086447 7.04507332 1.01981986 10.8125 2.25 C10.1525 4.23 9.4925 6.21 8.8125 8.25 C8.26980469 7.94964844 7.72710937 7.64929688 7.16796875 7.33984375 C6.45253906 6.95957031 5.73710937 6.57929687 5 6.1875 C4.29230469 5.80464844 3.58460938 5.42179687 2.85546875 5.02734375 C0.66552199 3.94736489 0.66552199 3.94736489 -2.1875 5.25 C-1.8575 6.9 -1.5275 8.55 -1.1875 10.25 C1.4525 10.58 4.0925 10.91 6.8125 11.25 C7.1425 12.24 7.4725 13.23 7.8125 14.25 C6.8225 15.24 5.8325 16.23 4.8125 17.25 C4.12542969 17.0334375 3.43835938 16.816875 2.73046875 16.59375 C1.82941406 16.3153125 0.92835938 16.036875 0 15.75 C-0.89332031 15.4715625 -1.78664062 15.193125 -2.70703125 14.90625 C-5.24323395 14.12211649 -5.24323395 14.12211649 -8.1875 14.25 C-5.67755425 0.44529837 -5.67755425 0.44529837 0 0 Z " fill="#8F803F" transform="translate(169.1875,116.75)"/>
<path d="M0 0 C1.21386936 3.64160808 0.6674695 4.33165469 -0.9375 7.6875 C-1.50791016 8.89986328 -1.50791016 8.89986328 -2.08984375 10.13671875 C-2.39019531 10.75160156 -2.69054687 11.36648437 -3 12 C-2.01 11.67 -1.02 11.34 0 11 C1.22969878 7.48809191 1.22969878 7.48809191 2 4 C2.99 4 3.98 4 5 4 C5.48076923 10.25 5.48076923 10.25 3.4375 13.4375 C-0.01048456 15.64774651 -1.98139041 15.70501923 -6 15 C-9 12.375 -9 12.375 -11 9 C-11 5.73344791 -10.54466247 3.90777078 -8.875 1.125 C-5.98014 -0.611916 -3.29140103 -0.18630572 0 0 Z M-5 3 C-7.28728734 4.83883881 -7.28728734 4.83883881 -7.125 7.625 C-7.08375 8.40875 -7.0425 9.1925 -7 10 C-4.49962266 7.82575883 -3.56371414 6.26954202 -3 3 C-3.66 3 -4.32 3 -5 3 Z " fill="#968A4E" transform="translate(163,137)"/>
<path d="M0 0 C1.90625 0.453125 1.90625 0.453125 4.40625 2.640625 C6.01483657 5.65672482 6.5228143 7.10606164 5.90625 10.453125 C4.59375 12.265625 4.59375 12.265625 2.90625 13.453125 C1.91625 13.453125 0.92625 13.453125 -0.09375 13.453125 C-1.48046875 11.921875 -1.48046875 11.921875 -2.78125 9.953125 C-3.43673828 8.97859375 -3.43673828 8.97859375 -4.10546875 7.984375 C-4.43160156 7.4790625 -4.75773437 6.97375 -5.09375 6.453125 C-6.42708333 9.453125 -6.42708333 9.453125 -5.09375 12.453125 C-4.10375 12.453125 -3.11375 12.453125 -2.09375 12.453125 C-2.09375 13.443125 -2.09375 14.433125 -2.09375 15.453125 C-5.06829134 15.13155296 -6.68710278 14.83172758 -8.90625 12.765625 C-10.47141945 9.71766345 -10.58741687 7.83826927 -10.09375 4.453125 C-7.48439037 0.32163891 -4.62677806 -0.24169736 0 0 Z M-3.09375 3.453125 C-1.78968116 5.47232837 -0.45551581 7.47237473 0.90625 9.453125 C1.23625 9.453125 1.56625 9.453125 1.90625 9.453125 C1.90625 7.803125 1.90625 6.153125 1.90625 4.453125 C0.25625 4.123125 -1.39375 3.793125 -3.09375 3.453125 Z " fill="#95894D" transform="translate(38.09375,124.546875)"/>
<path d="M0 0 C2.96135546 2.58169451 3.86756104 4.18881135 4.5 8.0625 C3.87862885 11.71305549 2.97055702 12.83229623 0 15 C-2.4375 15.9375 -2.4375 15.9375 -5 16 C-8.48634601 14.37844371 -9.84302194 13.23546708 -12 10 C-11.85202291 6.52253835 -11.34640997 4.5062915 -9.375 1.625 C-6.02269318 -0.66868361 -3.97348433 -0.6385957 0 0 Z M-6 3 C-8.2491908 4.82703227 -8.2491908 4.82703227 -8.25 7.5 C-8.2491908 10.17296773 -8.2491908 10.17296773 -6 12 C-3.45809998 12.2500773 -3.45809998 12.2500773 -1 12 C0.33187793 10.88833136 0.33187793 10.88833136 0.1875 8.0625 C0.33278733 4.89107141 0.33278733 4.89107141 -2 3 C-3.32 3 -4.64 3 -6 3 Z " fill="#968B4F" transform="translate(96,164)"/>
<path d="M0 0 C1.9375 0.8125 1.9375 0.8125 4 2 C4.33 2.99 4.66 3.98 5 5 C4.071875 5.3403125 4.071875 5.3403125 3.125 5.6875 C0.38589791 7.37929835 -0.05024472 8.99244161 -1 12 C1.93443402 11.73343428 1.93443402 11.73343428 5 11 C5.66 10.01 6.32 9.02 7 8 C8.32 8.66 9.64 9.32 11 10 C11 10.99 11 11.98 11 13 C5.62819824 15.62875405 0.95507399 16.6083965 -5 17 C-4.72740991 10.22613615 -3.80946641 5.65275661 0 0 Z " fill="#998F55" transform="translate(46,138)"/>
<path d="M0 0 C1.79133978 -0.05391993 3.58313899 -0.09275571 5.375 -0.125 C6.37273437 -0.14820312 7.37046875 -0.17140625 8.3984375 -0.1953125 C11 0 11 0 13 2 C11.576875 2.8353125 11.576875 2.8353125 10.125 3.6875 C6.91121213 6.06570302 6.04434882 7.24034426 5 11 C5.99 10.67 6.98 10.34 8 10 C8.66 11.98 9.32 13.96 10 16 C6.625 15.6875 6.625 15.6875 3 15 C-0.34944548 9.97583178 -0.09834146 5.90048743 0 0 Z " fill="#80AD1B" transform="translate(93,77)"/>
<path d="M0 0 C4.08055151 0.50547372 5.66272295 2.50088882 8.25 5.5625 C8.95640625 6.38878906 9.6628125 7.21507813 10.390625 8.06640625 C10.92171875 8.70449219 11.4528125 9.34257813 12 10 C10.02 12.97 10.02 12.97 8 16 C1.125 12.25 1.125 12.25 0 10 C-0.06996014 8.29297265 -0.08440154 6.58331997 -0.0625 4.875 C-0.05347656 3.96492188 -0.04445313 3.05484375 -0.03515625 2.1171875 C-0.02355469 1.41851562 -0.01195313 0.71984375 0 0 Z " fill="#88B322" transform="translate(75,63)"/>
<path d="M0 0 C0.66 0.33 1.32 0.66 2 1 C2.59355614 3.64860427 2.74209269 6.29197322 3 9 C1.39592672 9.02708567 -0.2082785 9.04643483 -1.8125 9.0625 C-3.15248047 9.07990234 -3.15248047 9.07990234 -4.51953125 9.09765625 C-7 9 -7 9 -10 8 C-10 8.99 -10 9.98 -10 11 C-10.99 10.67 -11.98 10.34 -13 10 C-13 9.34 -13 8.68 -13 8 C-14.32 8 -15.64 8 -17 8 C-16.67 6.68 -16.34 5.36 -16 4 C-15.34 4 -14.68 4 -14 4 C-13.34 3.01 -12.68 2.02 -12 1 C-11.01 1 -10.02 1 -9 1 C-9 2.32 -9 3.64 -9 5 C-6.36 5 -3.72 5 -1 5 C-0.67 3.35 -0.34 1.7 0 0 Z " fill="#9B9157" transform="translate(179,101)"/>
<path d="M0 0 C1.44632813 0.66708984 1.44632813 0.66708984 2.921875 1.34765625 C4.19764511 1.91987667 5.47370202 2.49145795 6.75 3.0625 C7.38421875 3.35705078 8.0184375 3.65160156 8.671875 3.95507812 C12.42288196 5.62547058 12.42288196 5.62547058 16.453125 5.68359375 C16.96359375 5.45800781 17.4740625 5.23242188 18 5 C17.67 7.31 17.34 9.62 17 12 C13.05050296 11.37183502 9.80107972 10.1354471 6.1875 8.4375 C4.72376953 7.75494141 4.72376953 7.75494141 3.23046875 7.05859375 C2.49441406 6.70925781 1.75835937 6.35992187 1 6 C1 6.66 1 7.32 1 8 C-0.32 8 -1.64 8 -3 8 C-2.45276317 4.62537285 -1.9451 2.91765 0 0 Z " fill="#928547" transform="translate(31,61)"/>
<path d="M0 0 C0 2.91086669 -0.42246043 4.7614167 -1.3125 7.5 C-1.55613281 8.2734375 -1.79976562 9.046875 -2.05078125 9.84375 C-3 12 -3 12 -4.5703125 13.5234375 C-6.39499365 15.40794426 -6.41490356 16.54444282 -6.5625 19.125 C-6.706875 20.40375 -6.85125 21.6825 -7 23 C-7.66 23.33 -8.32 23.66 -9 24 C-10.32 22.35 -11.64 20.7 -13 19 C-12.71125 18.30132812 -12.4225 17.60265625 -12.125 16.8828125 C-11.75375 15.97273438 -11.3825 15.06265625 -11 14.125 C-10.62875 13.22007813 -10.2575 12.31515625 -9.875 11.3828125 C-8.88509774 9.11016142 -8.88509774 9.11016142 -9 7 C-7.03125 5.2734375 -7.03125 5.2734375 -4.5 3.375 C-3.24703125 2.42753906 -3.24703125 2.42753906 -1.96875 1.4609375 C-0.99421875 0.73777344 -0.99421875 0.73777344 0 0 Z " fill="#D59C29" transform="translate(85,91)"/>
<path d="M0 0 C2.00720923 0.28674418 4.0085944 0.61866701 6 1 C5.24555741 6.37740996 3.61488824 11.11964773 1.7421875 16.1953125 C0.9942435 19.02175351 0.98329429 20.31023427 2 23 C0.35 23 -1.3 23 -3 23 C-4.50657966 18.48026103 -2.31093114 14.81001388 -0.65039062 10.53710938 C0.84011985 6.57797588 0.84011985 6.57797588 0.15234375 2.52734375 C-0.22792969 2.02332031 -0.60820313 1.51929688 -1 1 C-0.67 0.67 -0.34 0.34 0 0 Z " fill="#918344" transform="translate(76,153)"/>
<path d="M0 0 C4.02972476 0.88457373 5.22805979 3.22758541 7.5625 6.5625 C7.5625 7.2225 7.5625 7.8825 7.5625 8.5625 C8.5525 8.8925 9.5425 9.2225 10.5625 9.5625 C9.75 11.5 9.75 11.5 8.5625 13.5625 C7.5725 13.8925 6.5825 14.2225 5.5625 14.5625 C5.05846232 13.27240357 4.55940074 11.98036211 4.0625 10.6875 C3.7840625 9.96820313 3.505625 9.24890625 3.21875 8.5078125 C2.5625 6.5625 2.5625 6.5625 2.5625 4.5625 C-1.36825644 5.13702746 -1.36825644 5.13702746 -4.4375 7.5625 C-5.0975 6.2425 -5.7575 4.9225 -6.4375 3.5625 C-4.31509447 1.67591731 -2.78606081 0.64293711 0 0 Z " fill="#978B4F" transform="translate(143.4375,151.4375)"/>
<path d="M0 0 C6.29457503 -0.6556849 10.0793596 1.03948455 15 5 C15.33 5.66 15.66 6.32 16 7 C15.01 7.33 14.02 7.66 13 8 C13 7.34 13 6.68 13 6 C12.484375 6.53625 11.96875 7.0725 11.4375 7.625 C9 9 9 9 5.25 8.1875 C4.1775 7.795625 3.105 7.40375 2 7 C2.33 5.02 2.66 3.04 3 1 C2.01 0.67 1.02 0.34 0 0 Z " fill="#FCF087" transform="translate(116,79)"/>
<path d="M0 0 C0.99 0 1.98 0 3 0 C2.67 1.98 2.34 3.96 2 6 C1.01 6 0.02 6 -1 6 C-1 6.99 -1 7.98 -1 9 C3.455 9.99 3.455 9.99 8 11 C8 11.99 8 12.98 8 14 C4.87802451 14.9811923 3.39856735 15.15757314 0.3125 13.9375 C-2.64796379 11.45711142 -3.39169865 9.80188346 -4 6 C-2.88483109 3.61035234 -1.86049542 1.86049542 0 0 Z " fill="#968B4F" transform="translate(58,155)"/>
<path d="M0 0 C3.97818315 0.26086447 7.04507332 1.01981986 10.8125 2.25 C10.1525 4.23 9.4925 6.21 8.8125 8.25 C8.29300781 7.94964844 7.77351562 7.64929688 7.23828125 7.33984375 C2.79276617 4.83322311 2.79276617 4.83322311 -2.1875 4.5 C-2.8475 4.7475 -3.5075 4.995 -4.1875 5.25 C-4.5175 6.9 -4.8475 8.55 -5.1875 10.25 C-5.8475 9.92 -6.5075 9.59 -7.1875 9.25 C-4.88876019 0.38343217 -4.88876019 0.38343217 0 0 Z " fill="#998F55" transform="translate(169.1875,116.75)"/>
<path d="M0 0 C0.33 0 0.66 0 1 0 C1.55353075 11.52164009 1.55353075 11.52164009 -2 17 C-2.66 17 -3.32 17 -4 17 C-4 15.68 -4 14.36 -4 13 C-4.66 13 -5.32 13 -6 13 C-5.59186904 10.63284044 -5.32646529 9.31227115 -3.5625 7.625 C-1.39867306 5.37461998 -0.85484398 2.95907532 0 0 Z " fill="#8EB629" transform="translate(137,98)"/>
<path d="M0 0 C0.99 0.33 1.98 0.66 3 1 C2.34 1 1.68 1 1 1 C2.74123482 5.49046723 2.74123482 5.49046723 6.5 8.1875 C7.325 8.455625 8.15 8.72375 9 9 C10.8125 10.625 10.8125 10.625 12 12 C4.8173913 12.48695652 4.8173913 12.48695652 1.0625 10.25 C-1.90588235 7.01176471 -1.90588235 7.01176471 -2 4 C-1.0625 1.75 -1.0625 1.75 0 0 Z " fill="#9A9157" transform="translate(24,107)"/>
<path d="M0 0 C2.31 0.66 4.62 1.32 7 2 C6.34 4.31 5.68 6.62 5 9 C2.69 8.34 0.38 7.68 -2 7 C-1.34 4.69 -0.68 2.38 0 0 Z " fill="#CA8E20" transform="translate(106,118)"/>
<path d="M0 0 C2.31 0.66 4.62 1.32 7 2 C6.34 4.31 5.68 6.62 5 9 C2.69 8.34 0.38 7.68 -2 7 C-1.34 4.69 -0.68 2.38 0 0 Z " fill="#CA8D1F" transform="translate(95,110)"/>
<path d="M0 0 C1.79244141 0.01740234 1.79244141 0.01740234 3.62109375 0.03515625 C5.41740234 0.04869141 5.41740234 0.04869141 7.25 0.0625 C8.17683594 0.07410156 9.10367188 0.08570312 10.05859375 0.09765625 C9.06859375 1.58265625 9.06859375 1.58265625 8.05859375 3.09765625 C5.67578125 3.390625 5.67578125 3.390625 2.93359375 3.28515625 C2.02351563 3.25808594 1.1134375 3.23101562 0.17578125 3.203125 C-0.52289062 3.16832031 -1.2215625 3.13351563 -1.94140625 3.09765625 C-2.27140625 4.41765625 -2.60140625 5.73765625 -2.94140625 7.09765625 C-3.27140625 7.09765625 -3.60140625 7.09765625 -3.94140625 7.09765625 C-3.98394981 5.09810879 -3.98221408 3.09723989 -3.94140625 1.09765625 C-2.94140625 0.09765625 -2.94140625 0.09765625 0 0 Z " fill="#908243" transform="translate(25.94140625,103.90234375)"/>
<path d="M0 0 C2.31 0.66 4.62 1.32 7 2 C6.34 4.31 5.68 6.62 5 9 C2.69 8.34 0.38 7.68 -2 7 C-1.34 4.69 -0.68 2.38 0 0 Z " fill="#C98C1E" transform="translate(83,115)"/>
<path d="M0 0 C2.31 0.66 4.62 1.32 7 2 C6.34 4.31 5.68 6.62 5 9 C2.69 8.34 0.38 7.68 -2 7 C-1.34 4.69 -0.68 2.38 0 0 Z " fill="#CA8E1F" transform="translate(107,105)"/>
<path d="M0 0 C2.31 0.66 4.62 1.32 7 2 C6.34 4.31 5.68 6.62 5 9 C2.69 8.34 0.38 7.68 -2 7 C-1.34 4.69 -0.68 2.38 0 0 Z " fill="#CB8F20" transform="translate(97,97)"/>
<path d="M0 0 C3.465 1.485 3.465 1.485 7 3 C6.34 4.98 5.68 6.96 5 9 C2.61435923 8.42415568 0.33317216 7.77772405 -2 7 C-1.34 4.69 -0.68 2.38 0 0 Z " fill="#CA8F20" transform="translate(87,90)"/>
<path d="M0 0 C0.99 0.33 1.98 0.66 3 1 C3.33 3.31 3.66 5.62 4 8 C1.69 7.67 -0.62 7.34 -3 7 C-3.33 5.68 -3.66 4.36 -4 3 C-2.1875 1.4375 -2.1875 1.4375 0 0 Z " fill="#FDF38A" transform="translate(130,86)"/>
<path d="M0 0 C1.134375 0.020625 2.26875 0.04125 3.4375 0.0625 C4.82945915 4.23837745 3.26073219 6.19724776 1.4375 10.0625 C0.4475 9.7325 -0.5425 9.4025 -1.5625 9.0625 C-0.9025 6.4225 -0.2425 3.7825 0.4375 1.0625 C-0.738125 1.7740625 -0.738125 1.7740625 -1.9375 2.5 C-3.45198678 3.40148023 -4.9860897 4.27429485 -6.5625 5.0625 C-4.14811644 0.07277397 -4.14811644 0.07277397 0 0 Z " fill="#9E975F" transform="translate(159.5625,136.9375)"/>
<path d="M0 0 C1.9375 0.8125 1.9375 0.8125 4 2 C4.33 2.99 4.66 3.98 5 5 C4.38125 5.268125 3.7625 5.53625 3.125 5.8125 C0.7004767 6.95556848 0.7004767 6.95556848 -1 10 C-1.33 9.34 -1.66 8.68 -2 8 C-2.66 8.99 -3.32 9.98 -4 11 C-3.48964169 6.6109185 -2.47785723 3.66291938 0 0 Z " fill="#A4A06C" transform="translate(46,138)"/>
<path d="M0 0 C2.31 0.66 4.62 1.32 7 2 C6.34 3.65 5.68 5.3 5 7 C2.69 7 0.38 7 -2 7 C-1.34 4.69 -0.68 2.38 0 0 Z " fill="#CA8F21" transform="translate(115,125)"/>
<path d="M0 0 C1.98 0.66 3.96 1.32 6 2 C5.34 4.31 4.68 6.62 4 9 C1.69 8.34 -0.62 7.68 -3 7 C-2.01 4.69 -1.02 2.38 0 0 Z " fill="#C88D1E" transform="translate(120,113)"/>
<path d="M0 0 C2.91517292 1.07401108 4.77810176 1.77810176 7 4 C6.34 5.65 5.68 7.3 5 9 C2.69 8.34 0.38 7.68 -2 7 C-1.34 4.69 -0.68 2.38 0 0 Z " fill="#C98D1E" transform="translate(84,102)"/>
<path d="M0 0 C0.99 0 1.98 0 3 0 C3.48951049 6.36363636 3.48951049 6.36363636 1.125 9.4375 C-1 11 -1 11 -3 11 C-3 10.34 -3 9.68 -3 9 C-3.99 9 -4.98 9 -6 9 C-5.67 8.34 -5.34 7.68 -5 7 C-4.01 7 -3.02 7 -2 7 C-1.34 4.69 -0.68 2.38 0 0 Z " fill="#998F54" transform="translate(165,141)"/>
<path d="M0 0 C2.31 0.66 4.62 1.32 7 2 C6.34 3.98 5.68 5.96 5 8 C2.69 7.34 0.38 6.68 -2 6 C-1.34 4.02 -0.68 2.04 0 0 Z " fill="#C98C1E" transform="translate(93,124)"/>
<path d="M0 0 C2 1 2 1 2.875 3.4375 C3.77050152 6.13605515 3.77050152 6.13605515 6.125 7.3125 C6.74375 7.539375 7.3625 7.76625 8 8 C6.68 8 5.36 8 4 8 C4 8.66 4 9.32 4 10 C0.83884224 8.63016497 0.0072908 8.0109362 -2 5 C-2 3.68 -2 2.36 -2 1 C-1.34 0.67 -0.68 0.34 0 0 Z " fill="#9E965F" transform="translate(86,169)"/>
<path d="M0 0 C3.73487777 0.4979837 5.81237635 0.87491756 9 3 C9 3.66 9 4.32 9 5 C6.69 5.66 4.38 6.32 2 7 C1.34 4.69 0.68 2.38 0 0 Z " fill="#C09034" transform="translate(82,129)"/>
<path d="M0 0 C2.31 0 4.62 0 7 0 C7.33 0.99 7.66 1.98 8 3 C7.01 3.99 6.02 4.98 5 6 C2.36 5.01 -0.28 4.02 -3 3 C-2.01 2.67 -1.02 2.34 0 2 C0 1.34 0 0.68 0 0 Z " fill="#9B9359" transform="translate(169,128)"/>
<path d="M0 0 C0.66 0 1.32 0 2 0 C4.1519437 3.22791555 4.20086443 4.28400809 4 8 C1.69 7.34 -0.62 6.68 -3 6 C-2.01 4.02 -1.02 2.04 0 0 Z " fill="#BB8C2F" transform="translate(75,119)"/>
<path d="M0 0 C2.31 0.66 4.62 1.32 7 2 C6.34 3.32 5.68 4.64 5 6 C2.69 6 0.38 6 -2 6 C-1.34 4.02 -0.68 2.04 0 0 Z " fill="#CA8E21" transform="translate(103,130)"/>
<path d="M0 0 C0.61875 0.474375 1.2375 0.94875 1.875 1.4375 C3.90705546 3.02417441 3.90705546 3.02417441 6 4 C5.34 5.32 4.68 6.64 4 8 C2.68 7.67 1.36 7.34 0 7 C-1.125 2.25 -1.125 2.25 0 0 Z " fill="#9C935A" transform="translate(132,166)"/>
<path d="M0 0 C2.97 0.495 2.97 0.495 6 1 C5.67 2.98 5.34 4.96 5 7 C4.01 7 3.02 7 2 7 C0.5393715 4.35261084 0 3.10551666 0 0 Z " fill="#A19B65" transform="translate(76,153)"/>
<path d="M0 0 C0.33 0.99 0.66 1.98 1 3 C0.67 3.66 0.34 4.32 0 5 C0.99 5 1.98 5 3 5 C3 5.66 3 6.32 3 7 C-1.51720311 7.36625971 -1.51720311 7.36625971 -3.8125 5.625 C-5 4 -5 4 -5 2 C-3.35 1.34 -1.7 0.68 0 0 Z " fill="#8B7B39" transform="translate(159,145)"/>
<path d="M0 0 C0 1.32 0 2.64 0 4 C-0.66 4 -1.32 4 -2 4 C-2 5.98 -2 7.96 -2 10 C-2.33 10 -2.66 10 -3 10 C-3 8.02 -3 6.04 -3 4 C-3.99 3.67 -4.98 3.34 -6 3 C-7.34090759 2.34870203 -8.67592331 1.68486725 -10 1 C-3.375 0 -3.375 0 0 0 Z " fill="#A19B65" transform="translate(41,102)"/>
<path d="M0 0 C0 2.64 0 5.28 0 8 C-0.99 8.495 -0.99 8.495 -2 9 C-3.32 7.35 -4.64 5.7 -6 4 C-2.25 0 -2.25 0 0 0 Z " fill="#B7811C" transform="translate(78,106)"/>
<path d="M0 0 C1.98 0.66 3.96 1.32 6 2 C5.34 4.31 4.68 6.62 4 9 C0.06153846 5.67692308 0.06153846 5.67692308 -0.25 2.25 C-0.1675 1.5075 -0.085 0.765 0 0 Z " fill="#CA8E20" transform="translate(116,102)"/>
<path d="M0 0 C-0.3125 2.875 -0.3125 2.875 -1 6 C-1.99 6.66 -2.98 7.32 -4 8 C-4.66 6.02 -5.32 4.04 -6 2 C-3 0 -3 0 0 0 Z " fill="#B9821D" transform="translate(82,96)"/>
<path d="M0 0 C0.66 1.98 1.32 3.96 2 6 C-1.375 5.6875 -1.375 5.6875 -5 5 C-5.66 4.01 -6.32 3.02 -7 2 C-2.25 0 -2.25 0 0 0 Z " fill="#C78B1E" transform="translate(101,87)"/>
<path d="M0 0 C2.475 0.99 2.475 0.99 5 2 C5 3.32 5 4.64 5 6 C3.125 5.75 3.125 5.75 1 5 C-0.25 2.9375 -0.25 2.9375 -1 1 C-0.67 0.67 -0.34 0.34 0 0 Z " fill="#9D955D" transform="translate(23,57)"/>
<path d="M0 0 C0.99 0 1.98 0 3 0 C2.67 1.98 2.34 3.96 2 6 C0.35 6 -1.3 6 -3 6 C-2.42655063 3.13275314 -2.1385485 2.1385485 0 0 Z " fill="#8C7B3A" transform="translate(58,155)"/>
<path d="M0 0 C0.66 0 1.32 0 2 0 C1.67 0.94875 1.34 1.8975 1 2.875 C-0.10159191 5.77062452 -0.10159191 5.77062452 0 8 C-0.99 8 -1.98 8 -3 8 C-2.67 6.68 -2.34 5.36 -2 4 C-3.32 4.33 -4.64 4.66 -6 5 C-6 4.01 -6 3.02 -6 2 C-4.7934375 1.7834375 -4.7934375 1.7834375 -3.5625 1.5625 C-1.07896294 1.25864751 -1.07896294 1.25864751 0 0 Z " fill="#E4B84D" transform="translate(127,85)"/>
<path d="M0 0 C0.99 0 1.98 0 3 0 C3.33 2.31 3.66 4.62 4 7 C3.01 7.495 3.01 7.495 2 8 C1.01 5.69 0.02 3.38 -1 1 C-0.67 0.67 -0.34 0.34 0 0 Z " fill="#8D7E3D" transform="translate(128,161)"/>
<path d="M0 0 C0.66 0.33 1.32 0.66 2 1 C2 1.99 2 2.98 2 4 C1.34 4 0.68 4 0 4 C-0.33 4.66 -0.66 5.32 -1 6 C-1 5.34 -1 4.68 -1 4 C-3.96731398 5.83656989 -3.96731398 5.83656989 -6 8 C-6.33 6.68 -6.66 5.36 -7 4 C-6.030625 3.525625 -5.06125 3.05125 -4.0625 2.5625 C-1.19522563 1.29806053 -1.19522563 1.29806053 0 0 Z " fill="#A29C66" transform="translate(132,157)"/>
<path d="M0 0 C-1.98 0.99 -1.98 0.99 -4 2 C-3.01 2.66 -2.02 3.32 -1 4 C-1.61875 4.12375 -2.2375 4.2475 -2.875 4.375 C-5.19120832 4.87197356 -5.19120832 4.87197356 -7 7 C-7.66 5.68 -8.32 4.36 -9 3 C-5.92807025 0.26939578 -4.09590633 -0.34132553 0 0 Z " fill="#AEAE7F" transform="translate(146,152)"/>
<path d="M0 0 C0.99 0.33 1.98 0.66 3 1 C3.125 3.875 3.125 3.875 3 7 C2.34 7.66 1.68 8.32 1 9 C0.34 8.67 -0.32 8.34 -1 8 C-0.67 5.36 -0.34 2.72 0 0 Z " fill="#978C51" transform="translate(39,106)"/>
<path d="M0 0 C2.31 0.33 4.62 0.66 7 1 C7 1.99 7 2.98 7 4 C5.68 3.67 4.36 3.34 3 3 C3.66 4.32 4.32 5.64 5 7 C3.68 7 2.36 7 1 7 C0.67 4.69 0.34 2.38 0 0 Z " fill="#E2B349" transform="translate(111,86)"/>
<path d="M0 0 C0.99 0 1.98 0 3 0 C3.33 2.31 3.66 4.62 4 7 C1.69 6.67 -0.62 6.34 -3 6 C-2.67 4.68 -2.34 3.36 -2 2 C-0.515 2.99 -0.515 2.99 1 4 C0.67 2.68 0.34 1.36 0 0 Z " fill="#E4B74C" transform="translate(124,96)"/>
<path d="M0 0 C0.66 0.33 1.32 0.66 2 1 C2 1.66 2 2.32 2 3 C2.99 3 3.98 3 5 3 C5 3.99 5 4.98 5 6 C3.35 5.67 1.7 5.34 0 5 C-0.33 4.01 -0.66 3.02 -1 2 C-0.67 1.34 -0.34 0.68 0 0 Z " fill="#9A9157" transform="translate(31,134)"/>
<path d="M0 0 C2.31 0 4.62 0 7 0 C6.34 0.66 5.68 1.32 5 2 C4.83312552 4.58354218 4.83312552 4.58354218 5 7 C4.01 7 3.02 7 2 7 C2.33 5.02 2.66 3.04 3 1 C2.01 0.67 1.02 0.34 0 0 Z " fill="#EDCF60" transform="translate(116,79)"/>
<path d="M0 0 C2.475 0.99 2.475 0.99 5 2 C5 2.99 5 3.98 5 5 C3.35 5 1.7 5 0 5 C-0.33 4.01 -0.66 3.02 -1 2 C-0.67 1.34 -0.34 0.68 0 0 Z " fill="#9C945B" transform="translate(73,171)"/>
<path d="M0 0 C1.9375 0.3125 1.9375 0.3125 4 1 C4.33 1.99 4.66 2.98 5 4 C4.34 4 3.68 4 3 4 C2.67 5.32 2.34 6.64 2 8 C2 6.35 2 4.7 2 3 C1.34 3 0.68 3 0 3 C0 2.01 0 1.02 0 0 Z " fill="#9B9258" transform="translate(38,126)"/>
<path d="M0 0 C0.66 0.33 1.32 0.66 2 1 C2 2.98 2 4.96 2 7 C0.68 7 -0.64 7 -2 7 C-1.42415568 4.61435923 -0.77772405 2.33317216 0 0 Z " fill="#A39E69" transform="translate(110,178)"/>
<path d="M0 0 C1.65 0 3.3 0 5 0 C5 0.99 5 1.98 5 3 C3.35 3.33 1.7 3.66 0 4 C0 2.68 0 1.36 0 0 Z " fill="#A29C67" transform="translate(61,166)"/>
<path d="M0 0 C1.65 0.33 3.3 0.66 5 1 C4.01 1.495 4.01 1.495 3 2 C3 2.66 3 3.32 3 4 C1.35 3.67 -0.3 3.34 -2 3 C-2.33 3.66 -2.66 4.32 -3 5 C-3 4.01 -3 3.02 -3 2 C-2.01 2 -1.02 2 0 2 C0 1.34 0 0.68 0 0 Z " fill="#AAA877" transform="translate(60,159)"/>
<path d="M0 0 C0.66 0 1.32 0 2 0 C2.33 1.65 2.66 3.3 3 5 C1.68 5.33 0.36 5.66 -1 6 C-0.67 4.02 -0.34 2.04 0 0 Z " fill="#508956" transform="translate(69,82)"/>
</svg>
